<svg id="svg" version="1.1" width="400" height="445.5958549222798" xmlns="http://www.w3.org/2000/svg" xmlns:xlink="http://www.w3.org/1999/xlink" style="display: block;"><g id="svgg"><path id="path0" d="M168.545 1.000 C 168.418 1.330,167.884 1.600,167.357 1.600 C 166.773 1.600,166.400 1.834,166.400 2.200 C 166.400 2.573,166.022 2.800,165.400 2.800 C 164.467 2.800,164.400 2.933,164.400 4.800 C 164.400 5.900,164.580 6.800,164.800 6.800 C 165.020 6.800,165.200 7.166,165.200 7.613 C 165.200 8.059,165.470 8.529,165.800 8.655 C 166.172 8.798,166.400 9.407,166.400 10.255 C 166.400 11.104,166.628 11.713,167.000 11.855 C 167.370 11.997,167.600 12.605,167.600 13.443 C 167.600 14.189,167.780 14.800,168.000 14.800 C 168.220 14.800,168.400 15.436,168.400 16.213 C 168.400 17.099,168.623 17.711,169.000 17.855 C 169.367 17.996,169.600 18.603,169.600 19.419 C 169.600 20.153,169.780 20.864,170.000 21.000 C 170.220 21.136,170.400 21.872,170.400 22.636 C 170.400 23.502,170.626 24.112,171.000 24.255 C 171.392 24.406,171.600 25.029,171.600 26.055 C 171.600 27.082,171.808 27.705,172.200 27.855 C 172.607 28.012,172.800 28.650,172.800 29.843 C 172.800 30.809,172.980 31.600,173.200 31.600 C 173.420 31.600,173.600 32.500,173.600 33.600 C 173.600 35.111,173.747 35.600,174.200 35.600 C 174.666 35.600,174.800 36.131,174.800 37.976 C 174.800 39.283,174.980 40.464,175.200 40.600 C 175.420 40.736,175.600 41.922,175.600 43.236 C 175.600 44.991,175.759 45.686,176.200 45.855 C 176.667 46.035,176.800 46.825,176.800 49.419 C 176.800 51.253,176.980 52.864,177.200 53.000 C 177.424 53.138,177.601 55.040,177.602 57.324 C 177.604 60.158,177.787 61.749,178.202 62.546 C 179.007 64.088,179.095 82.235,178.300 82.499 C 177.949 82.616,177.760 84.054,177.666 87.333 C 177.592 89.900,177.367 92.000,177.166 92.000 C 176.965 92.000,176.800 93.061,176.800 94.357 C 176.800 96.084,176.639 96.776,176.200 96.945 C 175.806 97.096,175.600 97.720,175.600 98.764 C 175.600 99.638,175.420 100.464,175.200 100.600 C 174.980 100.736,174.800 101.537,174.800 102.381 C 174.800 103.375,174.589 103.995,174.200 104.145 C 173.823 104.289,173.600 104.901,173.600 105.787 C 173.600 106.564,173.420 107.200,173.200 107.200 C 172.980 107.200,172.800 107.718,172.800 108.351 C 172.800 108.984,172.530 109.726,172.200 110.000 C 171.870 110.274,171.600 110.907,171.600 111.406 C 171.600 111.906,171.330 112.418,171.000 112.545 C 170.623 112.689,170.400 113.301,170.400 114.187 C 170.400 114.964,170.220 115.600,170.000 115.600 C 169.780 115.600,169.600 116.031,169.600 116.557 C 169.600 117.084,169.330 117.618,169.000 117.745 C 168.670 117.871,168.400 118.431,168.400 118.987 C 168.400 119.544,168.220 120.000,168.000 120.000 C 167.780 120.000,167.600 120.428,167.600 120.951 C 167.600 121.474,167.330 122.126,167.000 122.400 C 166.670 122.674,166.400 123.307,166.400 123.806 C 166.400 124.306,166.130 124.818,165.800 124.945 C 165.470 125.071,165.200 125.541,165.200 125.987 C 165.200 126.434,165.020 126.800,164.800 126.800 C 164.580 126.800,164.400 127.231,164.400 127.757 C 164.400 128.284,164.130 128.818,163.800 128.945 C 163.470 129.071,163.200 129.631,163.200 130.187 C 163.200 130.744,163.020 131.200,162.800 131.200 C 162.580 131.200,162.400 131.451,162.400 131.757 C 162.400 132.064,162.130 132.418,161.800 132.545 C 161.470 132.671,161.200 133.141,161.200 133.587 C 161.200 134.034,161.023 134.400,160.808 134.400 C 160.592 134.400,160.302 134.850,160.164 135.400 C 160.026 135.950,159.753 136.400,159.557 136.400 C 159.360 136.400,159.200 136.850,159.200 137.400 C 159.200 138.022,158.973 138.400,158.600 138.400 C 158.270 138.400,158.000 138.670,158.000 139.000 C 158.000 139.330,157.820 139.600,157.600 139.600 C 157.380 139.600,157.200 139.941,157.200 140.357 C 157.200 140.774,156.930 141.218,156.600 141.345 C 156.270 141.471,156.000 142.031,156.000 142.587 C 156.000 143.144,155.795 143.600,155.544 143.600 C 154.990 143.600,154.030 144.803,154.013 145.519 C 154.006 145.805,153.550 146.455,153.000 146.965 C 152.450 147.475,152.000 148.276,152.000 148.746 C 152.000 149.238,151.746 149.600,151.400 149.600 C 151.070 149.600,150.800 149.870,150.800 150.200 C 150.800 150.530,150.620 150.800,150.400 150.800 C 150.180 150.800,150.000 151.070,150.000 151.400 C 150.000 151.730,149.730 152.000,149.400 152.000 C 149.027 152.000,148.800 152.378,148.800 153.000 C 148.800 153.550,148.607 154.000,148.371 154.000 C 147.818 154.000,146.800 155.018,146.800 155.571 C 146.800 155.807,146.632 156.000,146.427 156.000 C 146.222 156.000,145.939 156.363,145.798 156.807 C 145.657 157.251,144.655 158.539,143.571 159.669 C 142.487 160.800,141.600 162.057,141.600 162.462 C 141.600 162.868,141.407 163.200,141.171 163.200 C 140.618 163.200,139.600 164.218,139.600 164.771 C 139.600 165.007,139.330 165.200,139.000 165.200 C 138.670 165.200,138.400 165.351,138.400 165.536 C 138.400 165.721,137.588 166.732,136.596 167.783 C 135.604 168.833,134.684 170.122,134.553 170.646 C 134.421 171.171,134.063 171.600,133.757 171.600 C 133.450 171.600,133.200 171.780,133.200 172.000 C 133.200 172.220,132.930 172.400,132.600 172.400 C 132.270 172.400,132.000 172.593,132.000 172.829 C 132.000 173.382,130.982 174.400,130.429 174.400 C 130.193 174.400,130.000 174.593,130.000 174.829 C 130.000 175.382,128.982 176.400,128.429 176.400 C 128.193 176.400,128.000 176.670,128.000 177.000 C 128.000 177.330,127.820 177.600,127.600 177.600 C 127.380 177.600,127.200 177.870,127.200 178.200 C 127.200 178.530,126.930 178.800,126.600 178.800 C 126.270 178.800,126.000 178.980,126.000 179.200 C 126.000 179.420,125.730 179.600,125.400 179.600 C 125.070 179.600,124.800 179.842,124.800 180.137 C 124.800 180.432,124.170 181.013,123.400 181.428 C 122.630 181.843,122.000 182.321,122.000 182.491 C 122.000 182.661,121.730 182.800,121.400 182.800 C 121.070 182.800,120.800 183.040,120.800 183.332 C 120.800 183.625,120.350 184.106,119.800 184.400 C 119.250 184.694,118.800 185.175,118.800 185.468 C 118.800 185.760,118.607 186.000,118.371 186.000 C 117.818 186.000,116.800 187.018,116.800 187.571 C 116.800 187.807,116.524 188.000,116.187 188.000 C 115.851 188.000,115.471 188.270,115.345 188.600 C 115.218 188.930,114.840 189.200,114.504 189.200 C 114.169 189.200,113.300 189.830,112.574 190.600 C 111.848 191.370,111.062 192.000,110.827 192.000 C 110.592 192.000,110.400 192.270,110.400 192.600 C 110.400 192.930,110.207 193.200,109.971 193.200 C 109.418 193.200,108.400 194.218,108.400 194.771 C 108.400 195.007,108.239 195.200,108.041 195.200 C 107.456 195.200,105.200 197.335,105.200 197.889 C 105.200 198.170,104.865 198.400,104.456 198.400 C 104.047 198.400,103.372 198.870,102.956 199.444 C 102.540 200.018,101.525 201.202,100.700 202.076 C 99.875 202.950,99.200 203.831,99.200 204.033 C 99.200 204.235,98.930 204.400,98.600 204.400 C 98.270 204.400,98.000 204.670,98.000 205.000 C 98.000 205.330,97.730 205.600,97.400 205.600 C 97.070 205.600,96.800 205.793,96.800 206.029 C 96.800 206.582,95.782 207.600,95.229 207.600 C 94.993 207.600,94.800 207.870,94.800 208.200 C 94.800 208.530,94.620 208.800,94.400 208.800 C 94.180 208.800,94.000 209.034,94.000 209.319 C 94.000 209.605,93.280 210.588,92.400 211.504 C 91.520 212.420,90.800 213.356,90.800 213.585 C 90.800 213.813,90.530 214.000,90.200 214.000 C 89.870 214.000,89.600 214.323,89.600 214.718 C 89.600 215.112,88.880 216.208,88.000 217.151 C 87.120 218.095,86.400 219.122,86.400 219.434 C 86.400 219.745,86.220 220.000,86.000 220.000 C 85.780 220.000,85.600 220.251,85.600 220.557 C 85.600 220.864,85.330 221.218,85.000 221.345 C 84.670 221.471,84.400 221.941,84.400 222.387 C 84.400 222.834,84.220 223.200,84.000 223.200 C 83.780 223.200,83.600 223.451,83.600 223.757 C 83.600 224.064,83.330 224.418,83.000 224.545 C 82.670 224.671,82.400 225.141,82.400 225.587 C 82.400 226.034,82.220 226.400,82.000 226.400 C 81.780 226.400,81.600 226.850,81.600 227.400 C 81.600 228.022,81.373 228.400,81.000 228.400 C 80.670 228.400,80.400 228.670,80.400 229.000 C 80.400 229.330,80.223 229.600,80.008 229.600 C 79.792 229.600,79.502 230.050,79.364 230.600 C 79.226 231.150,78.953 231.600,78.757 231.600 C 78.560 231.600,78.400 232.050,78.400 232.600 C 78.400 233.222,78.173 233.600,77.800 233.600 C 77.427 233.600,77.200 233.978,77.200 234.600 C 77.200 235.150,77.020 235.600,76.800 235.600 C 76.580 235.600,76.400 236.031,76.400 236.557 C 76.400 237.084,76.130 237.618,75.800 237.745 C 75.470 237.871,75.200 238.263,75.200 238.616 C 75.200 238.969,74.930 239.527,74.600 239.857 C 74.270 240.187,74.000 240.804,74.000 241.229 C 74.000 241.653,73.820 242.000,73.600 242.000 C 73.380 242.000,73.200 242.611,73.200 243.357 C 73.200 244.195,72.970 244.803,72.600 244.945 C 72.270 245.071,72.000 245.530,72.000 245.964 C 72.000 246.398,71.820 246.864,71.600 247.000 C 71.380 247.136,71.200 247.847,71.200 248.581 C 71.200 249.397,70.967 250.004,70.600 250.145 C 70.228 250.287,70.000 250.896,70.000 251.745 C 70.000 252.593,69.772 253.202,69.400 253.345 C 69.070 253.471,68.800 254.020,68.800 254.564 C 68.800 255.108,68.620 255.664,68.400 255.800 C 68.180 255.936,68.000 256.827,68.000 257.781 C 68.000 258.953,67.806 259.589,67.400 259.745 C 66.989 259.902,66.800 260.545,66.800 261.787 C 66.800 262.784,66.620 263.600,66.400 263.600 C 66.174 263.600,66.000 264.733,66.000 266.200 C 66.000 268.244,65.872 268.800,65.400 268.800 C 64.972 268.800,64.800 269.236,64.800 270.320 C 64.800 271.156,64.621 272.019,64.401 272.239 C 64.182 272.458,63.885 274.300,63.741 276.333 C 63.596 278.365,63.326 280.122,63.139 280.238 C 62.696 280.511,62.696 325.088,63.139 325.362 C 63.325 325.477,63.593 327.332,63.734 329.484 C 63.876 331.636,64.173 333.458,64.396 333.532 C 64.618 333.606,64.800 334.377,64.800 335.246 C 64.800 336.281,65.007 336.904,65.400 337.055 C 65.839 337.224,66.000 337.916,66.000 339.643 C 66.000 340.948,66.179 342.000,66.400 342.000 C 66.620 342.000,66.800 342.906,66.800 344.013 C 66.800 345.432,66.977 346.093,67.400 346.255 C 67.820 346.417,68.000 347.072,68.000 348.443 C 68.000 349.519,68.180 350.400,68.400 350.400 C 68.620 350.400,68.800 350.850,68.800 351.400 C 68.800 352.022,69.027 352.400,69.400 352.400 C 69.833 352.400,70.000 352.844,70.000 354.000 C 70.000 355.156,70.167 355.600,70.600 355.600 C 71.033 355.600,71.200 356.044,71.200 357.200 C 71.200 358.080,71.380 358.800,71.600 358.800 C 71.820 358.800,72.000 359.237,72.000 359.771 C 72.000 360.306,72.270 361.013,72.600 361.343 C 72.930 361.673,73.200 362.305,73.200 362.748 C 73.200 363.191,73.380 363.664,73.600 363.800 C 73.820 363.936,74.000 364.474,74.000 364.995 C 74.000 365.516,74.225 366.188,74.500 366.488 C 75.230 367.285,75.989 368.499,76.258 369.300 C 76.388 369.685,76.652 370.000,76.847 370.000 C 77.041 370.000,77.200 370.456,77.200 371.013 C 77.200 371.569,77.470 372.129,77.800 372.255 C 78.130 372.382,78.400 372.916,78.400 373.443 C 78.400 373.969,78.580 374.400,78.800 374.400 C 79.020 374.400,79.200 374.766,79.200 375.213 C 79.200 375.659,79.470 376.129,79.800 376.255 C 80.130 376.382,80.400 376.832,80.400 377.255 C 80.400 377.679,80.670 378.129,81.000 378.255 C 81.330 378.382,81.600 378.736,81.600 379.043 C 81.600 379.349,81.780 379.600,82.000 379.600 C 82.220 379.600,82.400 379.935,82.400 380.344 C 82.400 380.753,82.850 381.426,83.400 381.839 C 83.950 382.252,84.400 382.972,84.400 383.439 C 84.400 383.906,84.839 384.618,85.376 385.021 C 85.913 385.424,86.456 386.169,86.584 386.677 C 86.711 387.185,86.992 387.600,87.208 387.600 C 87.423 387.600,87.600 387.870,87.600 388.200 C 87.600 388.530,87.826 388.800,88.102 388.800 C 88.379 388.800,88.857 389.385,89.166 390.100 C 89.475 390.815,90.419 392.068,91.264 392.884 C 92.109 393.700,92.800 394.583,92.800 394.846 C 92.800 395.109,93.520 396.009,94.400 396.846 C 95.280 397.683,96.000 398.478,96.000 398.613 C 96.000 399.018,97.112 400.000,97.571 400.000 C 97.807 400.000,98.000 400.270,98.000 400.600 C 98.000 400.930,98.270 401.200,98.600 401.200 C 98.930 401.200,99.200 401.393,99.200 401.629 C 99.200 402.182,100.218 403.200,100.771 403.200 C 101.007 403.200,101.200 403.393,101.200 403.629 C 101.200 404.182,102.218 405.200,102.771 405.200 C 103.007 405.200,103.200 405.470,103.200 405.800 C 103.200 406.130,103.440 406.400,103.732 406.400 C 104.025 406.400,104.506 406.850,104.800 407.400 C 105.094 407.950,105.475 408.400,105.647 408.400 C 105.818 408.400,106.444 408.850,107.038 409.400 C 107.631 409.950,108.361 410.400,108.658 410.400 C 108.956 410.400,109.200 410.670,109.200 411.000 C 109.200 411.330,109.470 411.600,109.800 411.600 C 110.130 411.600,110.400 411.780,110.400 412.000 C 110.400 412.220,110.670 412.400,111.000 412.400 C 111.330 412.400,111.600 412.642,111.600 412.937 C 111.600 413.232,112.230 413.813,113.000 414.228 C 113.770 414.643,114.400 415.121,114.400 415.291 C 114.400 415.461,114.670 415.600,115.000 415.600 C 115.330 415.600,115.600 415.870,115.600 416.200 C 115.600 416.530,115.870 416.800,116.200 416.800 C 116.530 416.800,116.800 416.980,116.800 417.200 C 116.800 417.420,117.250 417.600,117.800 417.600 C 118.350 417.600,118.800 417.778,118.800 417.995 C 118.800 418.710,120.163 420.000,120.917 420.000 C 121.728 420.000,122.800 420.894,122.800 421.571 C 122.800 421.807,123.250 422.000,123.800 422.000 C 124.350 422.000,124.800 422.180,124.800 422.400 C 124.800 422.620,125.051 422.800,125.357 422.800 C 125.664 422.800,126.018 423.070,126.145 423.400 C 126.271 423.730,126.721 424.000,127.145 424.000 C 127.568 424.000,128.018 424.270,128.145 424.600 C 128.271 424.930,128.741 425.200,129.187 425.200 C 129.634 425.200,130.000 425.359,130.000 425.553 C 130.000 425.748,130.315 426.016,130.700 426.149 C 131.085 426.282,131.940 426.740,132.600 427.166 C 133.260 427.593,134.096 427.955,134.457 427.971 C 134.819 427.987,135.218 428.270,135.345 428.600 C 135.471 428.930,136.031 429.200,136.587 429.200 C 137.144 429.200,137.600 429.380,137.600 429.600 C 137.600 429.820,138.031 430.000,138.557 430.000 C 139.084 430.000,139.618 430.270,139.745 430.600 C 139.871 430.930,140.296 431.206,140.687 431.213 C 141.079 431.220,141.749 431.490,142.176 431.813 C 142.604 432.136,143.369 432.400,143.876 432.400 C 144.384 432.400,144.800 432.580,144.800 432.800 C 144.800 433.020,145.231 433.200,145.757 433.200 C 146.284 433.200,146.818 433.470,146.945 433.800 C 147.089 434.177,147.701 434.400,148.587 434.400 C 149.364 434.400,150.000 434.580,150.000 434.800 C 150.000 435.020,150.630 435.200,151.400 435.200 C 152.378 435.200,152.800 435.381,152.800 435.800 C 152.800 436.231,153.240 436.400,154.357 436.400 C 155.372 436.400,155.995 436.609,156.145 437.000 C 156.271 437.330,156.820 437.600,157.364 437.600 C 157.908 437.600,158.464 437.780,158.600 438.000 C 158.736 438.220,159.647 438.400,160.624 438.400 C 161.936 438.400,162.400 438.557,162.400 439.000 C 162.400 439.453,162.889 439.600,164.400 439.600 C 165.500 439.600,166.400 439.780,166.400 440.000 C 166.400 440.220,167.281 440.400,168.357 440.400 C 169.728 440.400,170.383 440.580,170.545 441.000 C 170.711 441.435,171.393 441.600,173.016 441.600 C 174.475 441.600,175.467 441.809,175.857 442.200 C 176.207 442.550,177.185 442.800,178.205 442.800 C 179.166 442.800,180.064 442.980,180.200 443.200 C 180.336 443.420,182.117 443.600,184.162 443.600 C 186.696 443.600,188.267 443.795,189.104 444.212 C 190.760 445.038,238.424 444.930,238.700 444.100 C 238.821 443.737,240.171 443.600,243.610 443.600 C 246.340 443.600,248.458 443.430,248.600 443.200 C 248.736 442.980,249.827 442.800,251.024 442.800 C 252.692 442.800,253.200 442.660,253.200 442.200 C 253.200 441.717,253.822 441.600,256.400 441.600 C 258.978 441.600,259.600 441.483,259.600 441.000 C 259.600 440.528,260.156 440.400,262.200 440.400 C 263.667 440.400,264.800 440.226,264.800 440.000 C 264.800 439.778,265.871 439.600,267.213 439.600 C 268.988 439.600,269.686 439.442,269.855 439.000 C 270.011 438.594,270.647 438.400,271.819 438.400 C 272.773 438.400,273.664 438.220,273.800 438.000 C 273.936 437.780,274.564 437.600,275.195 437.600 C 275.826 437.600,276.613 437.330,276.943 437.000 C 277.301 436.642,278.279 436.400,279.371 436.400 C 280.730 436.400,281.200 436.246,281.200 435.800 C 281.200 435.367,281.644 435.200,282.800 435.200 C 283.680 435.200,284.400 435.020,284.400 434.800 C 284.400 434.580,285.036 434.400,285.813 434.400 C 286.699 434.400,287.311 434.177,287.455 433.800 C 287.605 433.409,288.228 433.200,289.243 433.200 C 290.099 433.200,290.800 433.020,290.800 432.800 C 290.800 432.580,291.237 432.400,291.771 432.400 C 292.306 432.400,293.013 432.130,293.343 431.800 C 293.673 431.470,294.406 431.200,294.971 431.200 C 295.619 431.200,296.000 430.978,296.000 430.600 C 296.000 430.181,296.422 430.000,297.400 430.000 C 298.170 430.000,298.800 429.820,298.800 429.600 C 298.800 429.380,299.327 429.200,299.971 429.200 C 300.616 429.200,301.413 428.930,301.743 428.600 C 302.073 428.270,302.716 428.000,303.171 428.000 C 303.627 428.000,304.000 427.820,304.000 427.600 C 304.000 427.380,304.456 427.200,305.013 427.200 C 305.569 427.200,306.129 426.930,306.255 426.600 C 306.382 426.270,306.856 426.000,307.308 426.000 C 308.328 426.000,311.200 424.762,311.200 424.323 C 311.200 424.145,311.656 424.000,312.213 424.000 C 312.769 424.000,313.329 423.730,313.455 423.400 C 313.582 423.070,314.116 422.800,314.643 422.800 C 315.169 422.800,315.600 422.620,315.600 422.400 C 315.600 422.180,315.966 422.000,316.413 422.000 C 316.859 422.000,317.329 421.730,317.455 421.400 C 317.582 421.070,318.116 420.800,318.643 420.800 L 319.600 420.800 319.600 402.171 C 319.600 386.146,319.684 383.459,320.200 382.943 C 321.130 382.013,321.103 335.560,320.171 334.629 C 319.826 334.283,319.376 334.000,319.171 334.000 C 318.967 334.000,318.800 333.730,318.800 333.400 C 318.800 333.070,318.530 332.800,318.200 332.800 C 317.870 332.800,317.600 332.620,317.600 332.400 C 317.600 332.180,317.330 332.000,317.000 332.000 C 316.474 332.000,316.400 329.378,316.400 310.800 C 316.400 296.933,316.262 289.600,316.000 289.600 C 315.780 289.600,315.600 289.330,315.600 289.000 C 315.600 288.476,313.511 288.400,299.200 288.400 C 281.494 288.400,281.200 288.364,281.200 286.208 C 281.200 285.882,280.750 285.502,280.200 285.364 C 279.650 285.226,279.200 284.953,279.200 284.757 C 279.200 284.560,278.949 284.400,278.643 284.400 C 278.336 284.400,277.982 284.130,277.855 283.800 C 277.665 283.305,276.613 283.200,271.841 283.200 C 267.233 283.200,265.935 283.322,265.457 283.800 C 265.127 284.130,264.651 284.400,264.400 284.400 C 263.823 284.400,262.800 285.405,262.800 285.971 C 262.800 286.207,262.595 286.400,262.344 286.400 C 261.245 286.400,260.825 287.853,260.813 291.700 C 260.805 294.042,260.960 295.600,261.200 295.600 C 261.420 295.600,261.603 295.915,261.607 296.300 C 261.615 297.164,263.283 298.800,264.156 298.800 C 264.510 298.800,264.800 298.980,264.800 299.200 C 264.800 299.451,267.333 299.600,271.600 299.600 C 275.867 299.600,278.400 299.451,278.400 299.200 C 278.400 298.980,278.720 298.800,279.111 298.800 C 279.843 298.800,281.200 297.498,281.200 296.795 C 281.200 296.578,281.368 296.400,281.573 296.400 C 281.778 296.400,282.046 296.085,282.168 295.700 C 282.374 295.053,283.332 295.000,294.795 295.000 L 307.200 295.000 307.200 311.900 L 307.200 328.800 259.600 328.800 C 217.556 328.800,212.000 328.870,212.000 329.400 C 212.000 329.730,211.807 330.000,211.571 330.000 C 211.018 330.000,210.000 331.018,210.000 331.571 C 210.000 331.807,209.807 332.000,209.571 332.000 C 209.018 332.000,208.000 333.018,208.000 333.571 C 208.000 333.807,207.569 334.000,207.043 334.000 C 205.612 334.000,205.600 334.138,205.605 349.733 C 205.611 365.645,205.643 366.000,207.047 366.000 C 207.571 366.000,208.000 366.193,208.000 366.429 C 208.000 366.982,209.018 368.000,209.571 368.000 C 209.807 368.000,210.000 368.193,210.000 368.429 C 210.000 368.962,211.010 370.000,211.529 370.000 C 211.741 370.000,212.018 370.270,212.145 370.600 C 212.346 371.126,216.012 371.200,241.787 371.200 L 271.200 371.200 271.200 382.056 C 271.200 393.869,271.183 393.955,268.900 393.987 C 268.372 393.995,268.000 394.248,268.000 394.600 C 268.000 395.083,267.380 395.200,264.824 395.200 C 263.077 395.200,261.536 395.380,261.400 395.600 C 261.262 395.823,259.405 396.000,257.205 396.000 C 254.229 396.000,253.109 396.148,252.657 396.600 C 252.177 397.080,250.857 397.200,246.052 397.200 C 242.480 397.200,239.947 397.362,239.800 397.600 C 239.462 398.146,212.938 398.146,212.600 397.600 C 212.456 397.367,210.148 397.195,207.076 397.187 C 203.072 397.178,201.613 397.033,201.024 396.587 C 200.477 396.174,199.202 396.000,196.724 396.000 C 194.641 396.000,193.200 395.836,193.200 395.600 C 193.200 395.375,192.081 395.200,190.643 395.200 C 188.739 395.200,188.027 395.047,187.855 394.600 C 187.689 394.165,187.007 394.000,185.384 394.000 C 183.925 394.000,182.933 393.791,182.543 393.400 C 182.213 393.070,181.246 392.800,180.395 392.800 C 179.544 392.800,178.736 392.620,178.600 392.400 C 178.464 392.180,177.665 392.000,176.825 392.000 C 175.956 392.000,175.084 391.742,174.800 391.400 C 174.526 391.070,173.694 390.800,172.951 390.800 C 172.208 390.800,171.600 390.620,171.600 390.400 C 171.600 390.180,170.880 390.000,170.000 390.000 C 168.844 390.000,168.400 389.833,168.400 389.400 C 168.400 389.000,168.000 388.800,167.200 388.800 C 166.540 388.800,166.000 388.620,166.000 388.400 C 166.000 388.180,165.370 388.000,164.600 388.000 C 163.622 388.000,163.200 387.819,163.200 387.400 C 163.200 387.027,162.822 386.800,162.200 386.800 C 161.650 386.800,161.200 386.641,161.200 386.446 C 161.200 386.069,157.673 384.800,156.625 384.800 C 156.281 384.800,156.000 384.530,156.000 384.200 C 156.000 383.867,155.644 383.600,155.200 383.600 C 154.760 383.600,154.400 383.420,154.400 383.200 C 154.400 382.980,154.059 382.800,153.643 382.800 C 153.226 382.800,152.782 382.530,152.655 382.200 C 152.529 381.870,152.079 381.600,151.655 381.600 C 151.232 381.600,150.782 381.330,150.655 381.000 C 150.529 380.670,150.059 380.400,149.613 380.400 C 149.166 380.400,148.800 380.220,148.800 380.000 C 148.800 379.780,148.549 379.600,148.243 379.600 C 147.936 379.600,147.582 379.330,147.455 379.000 C 147.329 378.670,146.859 378.400,146.413 378.400 C 145.966 378.400,145.600 378.220,145.600 378.000 C 145.600 377.780,145.330 377.600,145.000 377.600 C 144.670 377.600,144.400 377.330,144.400 377.000 C 144.400 376.670,144.065 376.400,143.656 376.400 C 143.247 376.400,142.574 375.950,142.161 375.400 C 141.748 374.850,141.183 374.400,140.905 374.400 C 140.627 374.400,140.400 374.130,140.400 373.800 C 140.400 373.470,140.226 373.200,140.012 373.200 C 139.075 373.200,131.200 365.325,131.200 364.388 C 131.200 364.174,130.930 364.000,130.600 364.000 C 130.270 364.000,130.000 363.807,130.000 363.571 C 130.000 363.336,129.775 362.892,129.500 362.585 C 128.313 361.262,128.000 360.809,128.000 360.417 C 128.000 360.188,127.730 360.000,127.400 360.000 C 127.031 360.000,126.800 359.625,126.800 359.024 C 126.800 358.487,126.620 357.936,126.400 357.800 C 126.180 357.664,125.997 357.248,125.993 356.876 C 125.989 356.504,125.539 355.776,124.993 355.258 C 124.447 354.740,124.000 354.052,124.000 353.729 C 124.000 353.407,123.730 352.873,123.400 352.543 C 123.070 352.213,122.800 351.500,122.800 350.959 C 122.800 350.418,122.530 349.871,122.200 349.745 C 121.870 349.618,121.600 349.084,121.600 348.557 C 121.600 348.031,121.420 347.600,121.200 347.600 C 120.980 347.600,120.800 347.073,120.800 346.429 C 120.800 345.784,120.530 344.987,120.200 344.657 C 119.870 344.327,119.600 343.853,119.600 343.604 C 119.600 342.804,118.316 339.196,117.952 338.970 C 117.758 338.851,117.600 338.133,117.600 337.376 C 117.600 336.420,117.417 336.000,117.000 336.000 C 116.547 336.000,116.400 335.511,116.400 334.000 C 116.400 332.900,116.220 332.000,116.000 332.000 C 115.774 332.000,115.600 330.867,115.600 329.400 C 115.600 327.356,115.472 326.800,115.000 326.800 C 114.520 326.800,114.400 326.203,114.400 323.824 C 114.400 322.187,114.220 320.736,114.000 320.600 C 113.453 320.262,113.453 297.600,114.000 297.600 C 114.237 297.600,114.400 296.148,114.400 294.043 C 114.400 291.250,114.529 290.436,115.000 290.255 C 115.442 290.086,115.600 289.388,115.600 287.613 C 115.600 286.271,115.778 285.200,116.000 285.200 C 116.220 285.200,116.400 284.294,116.400 283.187 C 116.400 281.768,116.577 281.107,117.000 280.945 C 117.418 280.784,117.600 280.133,117.600 278.800 C 117.600 277.467,117.782 276.816,118.200 276.655 C 118.577 276.511,118.800 275.899,118.800 275.013 C 118.800 274.236,118.980 273.600,119.200 273.600 C 119.420 273.600,119.600 272.989,119.600 272.243 C 119.600 271.405,119.830 270.797,120.200 270.655 C 120.577 270.511,120.800 269.899,120.800 269.013 C 120.800 268.236,120.980 267.600,121.200 267.600 C 121.420 267.600,121.600 267.150,121.600 266.600 C 121.600 265.978,121.827 265.600,122.200 265.600 C 122.600 265.600,122.800 265.200,122.800 264.400 C 122.800 263.740,122.977 263.200,123.192 263.200 C 123.408 263.200,123.708 262.705,123.859 262.100 C 124.010 261.495,124.466 260.460,124.872 259.800 C 125.279 259.140,125.720 258.285,125.852 257.900 C 125.985 257.515,126.252 257.200,126.447 257.200 C 126.641 257.200,126.800 256.750,126.800 256.200 C 126.800 255.578,127.027 255.200,127.400 255.200 C 127.773 255.200,128.000 254.822,128.000 254.200 C 128.000 253.650,128.181 253.200,128.401 253.200 C 128.622 253.200,129.114 252.480,129.496 251.600 C 129.877 250.720,130.416 250.000,130.694 250.000 C 130.972 250.000,131.200 249.766,131.200 249.480 C 131.200 248.688,132.153 246.807,132.556 246.803 C 133.088 246.798,133.973 245.498,133.987 244.700 C 133.994 244.315,134.270 244.000,134.600 244.000 C 134.930 244.000,135.200 243.730,135.200 243.400 C 135.200 243.070,135.470 242.800,135.800 242.800 C 136.130 242.800,136.400 242.608,136.400 242.373 C 136.400 242.138,137.030 241.352,137.800 240.626 C 138.570 239.900,139.210 239.147,139.223 238.953 C 139.235 238.759,140.413 237.520,141.840 236.200 C 143.268 234.880,145.257 233.035,146.262 232.100 C 147.267 231.165,148.249 230.400,148.445 230.400 C 148.640 230.400,148.800 230.207,148.800 229.971 C 148.800 229.334,149.853 228.400,150.571 228.400 C 150.917 228.400,151.920 227.680,152.800 226.800 C 153.680 225.920,154.760 225.200,155.200 225.200 C 155.644 225.200,156.000 224.933,156.000 224.600 C 156.000 224.227,156.378 224.000,157.000 224.000 C 157.550 224.000,158.000 223.863,158.000 223.695 C 158.000 223.389,159.185 222.667,160.500 222.171 C 160.885 222.026,161.200 221.748,161.200 221.553 C 161.200 221.359,161.650 221.200,162.200 221.200 C 162.822 221.200,163.200 220.973,163.200 220.600 C 163.200 220.227,163.578 220.000,164.200 220.000 C 164.822 220.000,165.200 219.773,165.200 219.400 C 165.200 219.027,165.578 218.800,166.200 218.800 C 166.750 218.800,167.200 218.620,167.200 218.400 C 167.200 218.180,167.656 218.000,168.213 218.000 C 168.769 218.000,169.329 217.730,169.455 217.400 C 169.582 217.070,170.116 216.800,170.643 216.800 C 171.169 216.800,171.600 216.620,171.600 216.400 C 171.600 216.180,172.028 216.000,172.551 216.000 C 173.074 216.000,173.726 215.730,174.000 215.400 C 174.274 215.070,174.907 214.800,175.406 214.800 C 175.906 214.800,176.418 214.530,176.545 214.200 C 176.671 213.870,177.231 213.600,177.787 213.600 C 178.344 213.600,178.800 213.420,178.800 213.200 C 178.800 212.980,179.436 212.800,180.213 212.800 C 181.099 212.800,181.711 212.577,181.855 212.200 C 181.997 211.830,182.605 211.600,183.443 211.600 C 184.189 211.600,184.800 211.420,184.800 211.200 C 184.800 210.980,185.507 210.800,186.371 210.800 C 187.236 210.800,188.213 210.530,188.543 210.200 C 188.899 209.844,189.877 209.600,190.948 209.600 C 191.941 209.600,192.864 209.420,193.000 209.200 C 193.136 208.980,194.025 208.800,194.975 208.800 C 196.022 208.800,196.898 208.564,197.200 208.200 C 197.560 207.766,198.514 207.600,200.649 207.600 C 203.005 207.600,203.600 207.479,203.600 207.000 C 203.600 206.500,204.397 206.400,208.376 206.400 C 211.129 206.400,213.258 206.231,213.400 206.000 C 213.737 205.455,237.863 205.455,238.200 206.000 C 238.343 206.232,240.523 206.400,243.381 206.400 C 247.397 206.400,248.357 206.512,248.545 207.000 C 248.724 207.468,249.518 207.600,252.145 207.600 C 254.771 207.600,255.565 207.732,255.745 208.200 C 255.914 208.642,256.612 208.800,258.387 208.800 C 259.729 208.800,260.800 208.978,260.800 209.200 C 260.800 209.426,261.933 209.600,263.400 209.600 C 265.444 209.600,266.000 209.728,266.000 210.200 C 266.000 210.653,266.489 210.800,268.000 210.800 C 269.100 210.800,270.000 210.980,270.000 211.200 C 270.000 211.420,270.698 211.600,271.551 211.600 C 272.442 211.600,273.314 211.855,273.600 212.200 C 273.886 212.545,274.758 212.800,275.649 212.800 C 276.502 212.800,277.200 212.980,277.200 213.200 C 277.200 213.420,277.901 213.600,278.757 213.600 C 279.772 213.600,280.395 213.809,280.545 214.200 C 280.687 214.572,281.296 214.800,282.145 214.800 C 282.993 214.800,283.602 215.028,283.745 215.400 C 283.889 215.777,284.501 216.000,285.387 216.000 C 286.164 216.000,286.800 216.180,286.800 216.400 C 286.800 216.620,287.430 216.800,288.200 216.800 C 289.178 216.800,289.600 216.981,289.600 217.400 C 289.600 217.800,290.000 218.000,290.800 218.000 C 291.460 218.000,292.000 218.180,292.000 218.400 C 292.000 218.620,292.630 218.800,293.400 218.800 C 294.378 218.800,294.800 218.981,294.800 219.400 C 294.800 219.765,295.172 220.000,295.751 220.000 C 296.274 220.000,296.926 220.270,297.200 220.600 C 297.474 220.930,298.025 221.200,298.425 221.200 C 298.825 221.200,299.264 221.380,299.400 221.600 C 299.536 221.820,300.157 222.000,300.781 222.000 C 301.419 222.000,302.015 222.262,302.145 222.600 C 302.271 222.930,302.831 223.200,303.387 223.200 C 303.944 223.200,304.400 223.380,304.400 223.600 C 304.400 223.820,304.850 224.000,305.400 224.000 C 306.022 224.000,306.400 224.227,306.400 224.600 C 306.400 224.973,306.778 225.200,307.400 225.200 C 308.022 225.200,308.400 225.427,308.400 225.800 C 308.400 226.173,308.778 226.400,309.400 226.400 C 309.950 226.400,310.400 226.580,310.400 226.800 C 310.400 227.020,310.670 227.200,311.000 227.200 C 311.330 227.200,311.600 227.377,311.600 227.592 C 311.600 227.808,312.050 228.098,312.600 228.236 C 313.150 228.374,313.600 228.647,313.600 228.843 C 313.600 229.040,314.050 229.200,314.600 229.200 C 315.222 229.200,315.600 229.427,315.600 229.800 C 315.600 230.130,315.917 230.400,316.304 230.400 C 316.691 230.400,317.493 230.850,318.087 231.400 C 318.680 231.950,319.533 232.400,319.983 232.400 C 320.443 232.400,320.800 232.662,320.800 233.000 C 320.800 233.330,321.070 233.600,321.400 233.600 C 321.730 233.600,322.000 233.780,322.000 234.000 C 322.000 234.220,322.450 234.400,323.000 234.400 C 323.550 234.400,324.000 234.593,324.000 234.829 C 324.000 235.382,325.018 236.400,325.571 236.400 C 325.807 236.400,326.000 236.670,326.000 237.000 C 326.000 237.330,326.199 237.600,326.442 237.600 C 326.686 237.600,327.239 238.050,327.671 238.600 C 328.104 239.150,328.786 239.600,329.186 239.600 C 329.587 239.600,330.018 239.870,330.145 240.200 C 330.796 241.898,335.200 239.320,335.200 237.240 C 335.200 236.778,335.425 236.399,335.700 236.397 C 336.667 236.391,337.200 234.259,337.200 230.400 C 337.200 226.541,336.667 224.409,335.700 224.403 C 335.425 224.401,335.200 224.130,335.200 223.800 C 335.200 223.470,334.930 223.200,334.600 223.200 C 334.270 223.200,334.000 222.930,334.000 222.600 C 334.000 222.260,333.641 222.000,333.171 222.000 C 332.286 222.000,331.200 221.134,331.200 220.429 C 331.200 220.193,331.007 220.000,330.771 220.000 C 330.016 220.000,329.200 218.888,329.200 217.857 C 329.200 217.307,328.930 216.587,328.600 216.257 C 327.872 215.529,327.734 209.755,328.439 209.520 C 328.681 209.440,328.975 208.521,329.092 207.478 C 329.210 206.435,329.462 205.485,329.653 205.367 C 330.148 205.061,330.097 196.400,329.600 196.400 C 329.380 196.400,329.200 195.764,329.200 194.987 C 329.200 194.101,328.977 193.489,328.600 193.345 C 328.270 193.218,328.000 192.637,328.000 192.053 C 328.000 191.469,327.550 190.507,327.000 189.913 C 326.450 189.320,326.000 188.564,326.000 188.233 C 326.000 187.538,322.687 184.000,322.036 184.000 C 321.796 184.000,321.600 183.802,321.600 183.560 C 321.600 183.319,320.700 182.239,319.600 181.162 C 318.500 180.085,317.600 178.843,317.600 178.402 C 317.600 177.961,317.375 177.599,317.100 177.597 C 316.597 177.594,315.600 175.847,315.600 174.969 C 315.600 174.710,315.330 174.274,315.000 174.000 C 314.617 173.682,314.400 172.797,314.400 171.551 C 314.400 170.478,314.220 169.600,314.000 169.600 C 313.757 169.600,313.600 167.808,313.600 165.024 C 313.600 162.404,313.771 160.342,314.000 160.200 C 314.220 160.064,314.400 158.624,314.400 157.000 C 314.400 155.376,314.220 153.936,314.000 153.800 C 313.780 153.664,313.600 152.748,313.600 151.764 C 313.600 150.543,313.410 149.902,313.000 149.745 C 312.670 149.618,312.400 149.106,312.400 148.606 C 312.400 148.107,312.130 147.474,311.800 147.200 C 311.470 146.926,311.200 146.454,311.200 146.151 C 311.200 145.848,311.020 145.600,310.800 145.600 C 310.580 145.600,310.400 145.150,310.400 144.600 C 310.400 143.978,310.173 143.600,309.800 143.600 C 309.470 143.600,309.200 143.408,309.200 143.174 C 309.200 142.394,304.872 138.400,304.026 138.400 C 303.558 138.400,303.200 138.140,303.200 137.800 C 303.200 137.431,302.825 137.200,302.224 137.200 C 301.687 137.200,301.136 137.020,301.000 136.800 C 300.864 136.580,300.313 136.400,299.776 136.400 C 299.175 136.400,298.800 136.169,298.800 135.800 C 298.800 135.427,298.422 135.200,297.800 135.200 C 297.250 135.200,296.800 135.007,296.800 134.771 C 296.800 134.218,295.782 133.200,295.229 133.200 C 294.993 133.200,294.800 132.930,294.800 132.600 C 294.800 132.270,294.607 132.000,294.371 132.000 C 294.136 132.000,293.686 131.743,293.371 131.429 C 293.057 131.114,292.800 130.664,292.800 130.429 C 292.800 130.193,292.530 130.000,292.200 130.000 C 291.827 130.000,291.600 129.622,291.600 129.000 C 291.600 128.450,291.440 128.000,291.243 128.000 C 291.047 128.000,290.774 127.550,290.636 127.000 C 290.498 126.450,290.208 126.000,289.992 126.000 C 289.777 126.000,289.600 125.550,289.600 125.000 C 289.600 124.450,289.420 124.000,289.200 124.000 C 288.980 124.000,288.800 123.473,288.800 122.829 C 288.800 122.184,288.530 121.387,288.200 121.057 C 287.801 120.658,287.600 119.659,287.600 118.078 C 287.600 116.450,287.410 115.541,287.000 115.200 C 286.537 114.816,286.400 113.753,286.400 110.551 C 286.400 108.050,286.241 106.400,286.000 106.400 C 285.780 106.400,285.600 105.680,285.600 104.800 C 285.600 103.644,285.433 103.200,285.000 103.200 C 284.599 103.200,284.400 102.799,284.400 101.992 C 284.400 101.328,283.950 100.071,283.400 99.200 C 282.850 98.329,282.400 97.432,282.400 97.208 C 282.400 96.984,282.130 96.800,281.800 96.800 C 281.467 96.800,281.200 96.444,281.200 96.000 C 281.200 95.560,281.020 95.200,280.800 95.200 C 280.580 95.200,280.400 95.027,280.400 94.815 C 280.400 94.277,276.967 90.800,276.436 90.800 C 276.196 90.800,276.000 90.623,276.000 90.408 C 276.000 90.192,275.550 89.902,275.000 89.764 C 274.450 89.626,274.000 89.292,274.000 89.021 C 274.000 88.750,273.289 88.294,272.421 88.007 C 271.552 87.720,270.748 87.241,270.633 86.943 C 270.519 86.644,269.879 86.400,269.213 86.400 C 268.546 86.400,268.000 86.220,268.000 86.000 C 268.000 85.780,267.544 85.600,266.987 85.600 C 266.431 85.600,265.871 85.330,265.745 85.000 C 265.618 84.670,265.084 84.400,264.557 84.400 C 264.031 84.400,263.600 84.220,263.600 84.000 C 263.600 83.780,263.150 83.600,262.600 83.600 C 262.050 83.600,261.600 83.406,261.600 83.169 C 261.600 82.609,259.391 80.400,258.831 80.400 C 258.594 80.400,258.400 80.207,258.400 79.971 C 258.400 79.418,257.382 78.400,256.829 78.400 C 256.593 78.400,256.400 78.130,256.400 77.800 C 256.400 77.470,256.240 77.200,256.043 77.200 C 255.847 77.200,255.574 76.750,255.436 76.200 C 255.298 75.650,255.008 75.200,254.792 75.200 C 254.577 75.200,254.400 74.750,254.400 74.200 C 254.400 73.578,254.173 73.200,253.800 73.200 C 253.324 73.200,253.200 72.625,253.200 70.424 C 253.200 68.897,253.020 67.536,252.800 67.400 C 252.580 67.264,252.400 66.528,252.400 65.764 C 252.400 64.898,252.174 64.288,251.800 64.145 C 251.470 64.018,251.194 63.529,251.187 63.057 C 251.173 62.061,250.317 60.800,249.656 60.800 C 249.405 60.800,249.200 60.530,249.200 60.200 C 249.200 59.870,248.930 59.600,248.600 59.600 C 248.270 59.600,248.000 59.407,248.000 59.171 C 248.000 58.618,246.982 57.600,246.429 57.600 C 246.193 57.600,246.000 57.407,246.000 57.171 C 246.000 56.618,244.982 55.600,244.429 55.600 C 244.193 55.600,244.000 55.330,244.000 55.000 C 244.000 54.670,243.730 54.400,243.400 54.400 C 243.070 54.400,242.800 54.223,242.800 54.008 C 242.800 53.792,242.350 53.502,241.800 53.364 C 241.250 53.226,240.800 52.953,240.800 52.757 C 240.800 52.560,240.350 52.400,239.800 52.400 C 239.178 52.400,238.800 52.173,238.800 51.800 C 238.800 51.427,238.422 51.200,237.800 51.200 C 237.250 51.200,236.800 51.020,236.800 50.800 C 236.800 50.580,236.344 50.400,235.787 50.400 C 235.231 50.400,234.671 50.130,234.545 49.800 C 234.384 49.381,233.731 49.200,232.381 49.200 C 231.317 49.200,230.336 49.020,230.200 48.800 C 230.064 48.580,229.418 48.400,228.764 48.400 C 228.076 48.400,227.478 48.147,227.345 47.800 C 227.218 47.470,226.684 47.200,226.157 47.200 C 225.631 47.200,225.200 47.032,225.200 46.827 C 225.200 46.622,224.803 46.328,224.319 46.174 C 223.289 45.847,222.400 45.039,222.400 44.429 C 222.400 44.193,222.207 44.000,221.971 44.000 C 221.418 44.000,220.400 42.982,220.400 42.429 C 220.400 42.193,220.220 42.000,220.000 42.000 C 219.397 42.000,218.000 40.480,218.000 39.824 C 218.000 39.507,217.820 39.136,217.600 39.000 C 217.380 38.864,217.200 37.975,217.200 37.025 C 217.200 35.978,216.964 35.102,216.600 34.800 C 216.234 34.496,216.000 33.620,216.000 32.551 C 216.000 31.588,215.820 30.800,215.600 30.800 C 215.380 30.800,215.194 30.485,215.187 30.100 C 215.171 29.276,213.863 27.600,213.236 27.600 C 212.996 27.600,212.800 27.407,212.800 27.171 C 212.800 26.618,211.782 25.600,211.229 25.600 C 210.993 25.600,210.800 25.330,210.800 25.000 C 210.800 24.670,210.530 24.400,210.200 24.400 C 209.870 24.400,209.600 24.223,209.600 24.008 C 209.600 23.792,209.150 23.502,208.600 23.364 C 208.050 23.226,207.600 22.953,207.600 22.757 C 207.600 22.560,206.989 22.400,206.243 22.400 C 205.405 22.400,204.797 22.170,204.655 21.800 C 204.477 21.336,203.699 21.200,201.213 21.200 C 199.338 21.200,198.000 21.033,198.000 20.800 C 198.000 20.580,197.209 20.400,196.243 20.400 C 195.050 20.400,194.412 20.207,194.255 19.800 C 194.129 19.470,193.741 19.200,193.393 19.200 C 193.046 19.200,192.345 18.750,191.835 18.200 C 191.325 17.650,190.704 17.200,190.454 17.200 C 190.204 17.200,190.000 17.007,190.000 16.771 C 190.000 16.218,188.982 15.200,188.429 15.200 C 188.193 15.200,188.000 14.930,188.000 14.600 C 188.000 14.270,187.820 14.000,187.600 14.000 C 187.380 14.000,187.200 13.634,187.200 13.187 C 187.200 12.741,186.930 12.271,186.600 12.145 C 186.270 12.018,186.000 11.484,186.000 10.957 C 186.000 10.373,185.766 10.000,185.400 10.000 C 184.967 10.000,184.800 9.556,184.800 8.400 C 184.800 7.520,184.620 6.800,184.400 6.800 C 184.180 6.800,184.000 6.524,184.000 6.187 C 184.000 5.851,183.730 5.471,183.400 5.345 C 183.070 5.218,182.800 4.851,182.800 4.529 C 182.800 3.846,181.849 2.800,181.229 2.800 C 180.993 2.800,180.800 2.530,180.800 2.200 C 180.800 1.834,180.427 1.600,179.843 1.600 C 179.316 1.600,178.782 1.330,178.655 1.000 C 178.315 0.114,168.885 0.114,168.545 1.000 " stroke="none" fill="#000000" fill-rule="evenodd"></path><path id="path1" d="M197.857 303.400 C 197.527 303.730,196.884 304.000,196.429 304.000 C 195.973 304.000,195.600 304.180,195.600 304.400 C 195.600 304.620,195.330 304.800,195.000 304.800 C 194.670 304.800,194.400 305.070,194.400 305.400 C 194.400 305.730,194.130 306.000,193.800 306.000 C 193.470 306.000,193.200 306.270,193.200 306.600 C 193.200 306.930,193.020 307.200,192.800 307.200 C 192.580 307.200,192.400 307.476,192.400 307.813 C 192.400 308.149,192.130 308.529,191.800 308.655 C 191.433 308.796,191.200 309.403,191.200 310.219 C 191.200 310.953,191.020 311.664,190.800 311.800 C 190.580 311.936,190.400 312.937,190.400 314.024 C 190.400 315.111,190.580 316.000,190.800 316.000 C 191.020 316.000,191.200 316.726,191.200 317.613 C 191.200 318.677,191.404 319.303,191.800 319.455 C 192.130 319.582,192.406 319.981,192.413 320.343 C 192.428 321.145,193.336 322.400,193.901 322.400 C 194.129 322.400,194.418 322.670,194.545 323.000 C 194.671 323.330,195.130 323.600,195.564 323.600 C 195.998 323.600,196.464 323.780,196.600 324.000 C 196.763 324.263,213.071 324.400,244.224 324.400 C 275.541 324.400,291.600 324.264,291.600 324.000 C 291.600 323.780,292.050 323.600,292.600 323.600 C 293.222 323.600,293.600 323.373,293.600 323.000 C 293.600 322.670,293.804 322.400,294.053 322.400 C 294.647 322.400,296.000 320.828,296.000 320.139 C 296.000 319.842,296.180 319.600,296.400 319.600 C 296.620 319.600,296.800 319.137,296.800 318.571 C 296.800 318.006,297.070 317.273,297.400 316.943 C 297.799 316.544,298.000 315.545,298.000 313.959 C 298.000 312.209,297.840 311.514,297.400 311.345 C 297.047 311.209,296.795 310.596,296.787 309.857 C 296.774 308.522,296.012 307.200,295.256 307.200 C 295.005 307.200,294.800 306.930,294.800 306.600 C 294.800 306.270,294.530 306.000,294.200 306.000 C 293.870 306.000,293.600 305.807,293.600 305.571 C 293.600 304.879,292.521 304.000,291.671 304.000 C 291.239 304.000,290.782 303.730,290.655 303.400 C 290.453 302.871,284.947 302.800,244.441 302.800 C 204.100 302.800,198.384 302.874,197.857 303.400 " stroke="none" fill="#eb2e2e" fill-rule="evenodd"></path></g></svg>